HIERARCHY
ROOT Hips
{
	OFFSET 0.000000 0.000000 0.000000
	CHANNELS 6 Xposition Yposition Zposition Zrotation Yrotation Xrotation 
	JOINT LowerBack
	{
		OFFSET 0.000000 0.000000 0.000000
		CHANNELS 3 Zrotation Yrotation Xrotation
		JOINT Spine
		{
			OFFSET 0.028270 2.035590 -0.193380
			CHANNELS 3 Zrotation Yrotation Xrotation
			JOINT Spine1
			{
				OFFSET 0.056720 2.048850 -0.042750
				CHANNELS 3 Zrotation Yrotation Xrotation
				JOINT Neck
				{
					OFFSET 0.000000 0.000000 0.000000
					CHANNELS 3 Zrotation Yrotation Xrotation
					JOINT Neck1
					{
						OFFSET -0.054170 1.746240 0.172020
						CHANNELS 3 Zrotation Yrotation Xrotation
						JOINT Head
						{
							OFFSET 0.104070 1.761360 -0.123970
							CHANNELS 3 Zrotation Yrotation Xrotation
							End Site
							{
								OFFSET 0.000000 0.000000 0.000000
							}
						}
					}
				}
				JOINT LeftShoulder
				{
					OFFSET 0.000000 0.000000 0.000000
					CHANNELS 3 Zrotation Yrotation Xrotation
					JOINT LeftArm
					{
						OFFSET 3.362410 1.200890 -0.311210
						CHANNELS 3 Zrotation Yrotation Xrotation
						JOINT LeftForeArm
						{
							OFFSET 4.983000 -0.000000 -0.000000
							CHANNELS 3 Zrotation Yrotation Xrotation
							JOINT LeftHand
							{
								OFFSET 3.483560 -0.000000 -0.000000
								CHANNELS 3 Zrotation Yrotation Xrotation
								JOINT LeftFingerBase
								{
									OFFSET 0.000000 0.000000 0.000000
									CHANNELS 3 Zrotation Yrotation Xrotation
									JOINT LeftHandIndex1
									{
										OFFSET 0.715260 -0.000000 -0.000000
										CHANNELS 3 Zrotation Yrotation Xrotation
										End Site
										{
											OFFSET 0.000000 0.000000 0.000000
										}
									}
								}
								JOINT LThumb
								{
									OFFSET 0.000000 0.000000 0.000000
									CHANNELS 3 Zrotation Yrotation Xrotation
									End Site
									{
										OFFSET 0.000000 0.000000 0.000000
									}
								}
							}
						}
					}
				}
				JOINT RightShoulder
				{
					OFFSET 0.000000 0.000000 0.000000
					CHANNELS 3 Zrotation Yrotation Xrotation
					JOINT RightArm
					{
						OFFSET -3.136600 1.374050 -0.404650
						CHANNELS 3 Zrotation Yrotation Xrotation
						JOINT RightForeArm
						{
							OFFSET -5.241900 -0.000000 -0.000000
							CHANNELS 3 Zrotation Yrotation Xrotation
							JOINT RightHand
							{
								OFFSET -3.444170 -0.000000 -0.000000
								CHANNELS 3 Zrotation Yrotation Xrotation
								JOINT RightFingerBase
								{
									OFFSET 0.000000 0.000000 0.000000
									CHANNELS 3 Zrotation Yrotation Xrotation
									JOINT RightHandIndex1
									{
										OFFSET -0.622530 -0.000000 -0.000000
										CHANNELS 3 Zrotation Yrotation Xrotation
										End Site
										{
											OFFSET 0.000000 0.000000 0.000000
										}
									}
								}
								JOINT RThumb
								{
									OFFSET 0.000000 0.000000 0.000000
									CHANNELS 3 Zrotation Yrotation Xrotation
									End Site
									{
										OFFSET 0.000000 0.000000 0.000000
									}
								}
							}
						}
					}
				}
			}
		}
	}
}
}
MOTION
Frames: 10
Frame Time: 0.008333
3.013838 17.119741 -1.296649 40.024018 -69.964242 -1.301444 -12.918170 -2.148591 -1.519954 -3.511708 -1.539714 -3.271090 -5.408941 -1.629812 0.277940 9.202726 -8.668011 -12.287180 -2.477974 -0.096077 -1.732663 0.000000 0.000000 0.000000 0.233614 11.721372 3.188105 -51.422178 2.857277 -33.536354 -0.567979 -73.188284 -0.093375 24.461706 -2.582508 -0.623340 -0.304571 0.264326 0.000000 0.000000 0.000000 0.000000 0.000000 0.000000 0.000000 9.412915 -4.360819 1.984415 61.006257 0.623111 -31.469100 0.224735 72.946419 -0.117943 -24.486000 9.488154 -2.169578 0.247781 -0.393111 0.000000 0.000000 0.000000 0.000000 0.000000 0.000000 0.000000 
3.022320 17.128188 -1.295326 39.335906 -70.190922 -0.984612 -12.682644 -2.082623 -1.451314 -3.467314 -1.483692 -3.248785 -5.456826 -1.570931 0.291999 9.144586 -8.629112 -12.083214 -2.490282 -0.100278 -1.665007 0.000000 0.000000 0.000000 0.394527 11.561784 3.149516 -51.048762 2.575892 -33.566312 -0.570357 -72.991793 -0.095360 24.453945 -2.354185 -0.573459 -0.304977 0.266186 0.000000 0.000000 0.000000 0.000000 0.000000 0.000000 0.000000 9.411967 -4.374387 1.922106 61.201547 1.132431 -30.995639 0.219750 72.584780 -0.118425 -24.534130 9.520256 -2.180993 0.246669 -0.393419 0.000000 0.000000 0.000000 0.000000 0.000000 0.000000 0.000000 
3.029242 17.138678 -1.292638 38.636954 -70.495389 -0.752542 -12.429916 -1.996871 -1.385565 -3.418383 -1.407649 -3.225732 -5.505073 -1.491641 0.312956 9.097721 -8.620465 -11.882808 -2.494815 -0.103879 -1.596610 0.000000 0.000000 0.000000 0.531051 11.449993 3.103506 -50.687386 2.287709 -33.525576 -0.572302 -72.856890 -0.096996 24.388879 -2.175481 -0.533370 -0.305560 0.268480 0.000000 0.000000 0.000000 0.000000 0.000000 0.000000 0.000000 9.382543 -4.391649 1.853786 61.443405 1.587940 -30.404506 0.219142 72.292313 -0.118337 -24.466150 9.596647 -2.191898 0.245274 -0.394525 0.000000 0.000000 0.000000 0.000000 0.000000 0.000000 0.000000 
3.033438 17.150658 -1.289313 37.993031 -70.860403 -0.653311 -12.189345 -1.899580 -1.327994 -3.371712 -1.318610 -3.203953 -5.555287 -1.399262 0.336951 9.071475 -8.624326 -11.686922 -2.494151 -0.107089 -1.528153 0.000000 0.000000 0.000000 0.653314 11.382470 3.053103 -50.327613 2.011382 -33.424211 -0.573459 -72.799058 -0.098294 24.279758 -2.054063 -0.505074 -0.306459 0.271254 0.000000 0.000000 0.000000 0.000000 0.000000 0.000000 0.000000 9.339376 -4.395543 1.780509 61.732578 1.954776 -29.723304 0.223021 72.094628 -0.117679 -24.295778 9.717334 -2.202992 0.243580 -0.396224 0.000000 0.000000 0.000000 0.000000 0.000000 0.000000 0.000000 
3.035785 17.164196 -1.284627 37.345338 -71.286619 -0.633327 -11.931077 -1.787889 -1.264318 -3.320855 -1.215473 -3.180858 -5.605435 -1.292353 0.362687 9.055566 -8.656534 -11.503859 -2.486280 -0.109580 -1.462538 0.000000 0.000000 0.000000 0.741042 11.358705 2.997754 -49.970799 1.735072 -33.276808 -0.573028 -72.823053 -0.099297 24.139886 -1.988108 -0.488569 -0.307566 0.274429 0.000000 0.000000 0.000000 0.000000 0.000000 0.000000 0.000000 9.265491 -4.404012 1.704397 62.064950 2.256675 -28.973769 0.230483 71.985143 -0.116596 -24.041184 9.885855 -2.216276 0.241701 -0.398693 0.000000 0.000000 0.000000 0.000000 0.000000 0.000000 0.000000 
3.035387 17.178760 -1.279048 36.746795 -71.757142 -0.731188 -11.677760 -1.669884 -1.201893 -3.270876 -1.105380 -3.158791 -5.656974 -1.178394 0.387169 9.054455 -8.699534 -11.332065 -2.473926 -0.111616 -1.399441 0.000000 0.000000 0.000000 0.806621 11.371550 2.940055 -49.613644 1.480963 -33.094408 -0.570789 -72.933018 -0.100038 23.984483 -1.978849 -0.484158 -0.308961 0.277977 0.000000 0.000000 0.000000 0.000000 0.000000 0.000000 0.000000 9.173159 -4.402032 1.625789 62.438330 2.469589 -28.186694 0.240896 71.974865 -0.115131 -23.722486 10.095837 -2.231752 0.239624 -0.401702 0.000000 0.000000 0.000000 0.000000 0.000000 0.000000 0.000000 
3.032417 17.194163 -1.272246 36.181336 -72.267496 -0.926409 -11.418248 -1.547031 -1.136909 -3.219318 -0.990547 -3.137171 -5.709013 -1.059552 0.409693 9.061595 -8.756179 -11.174016 -2.457209 -0.113156 -1.339788 0.000000 0.000000 0.000000 0.846074 11.416808 2.880314 -49.261415 1.251834 -32.889581 -0.566334 -73.125000 -0.100565 23.827007 -2.019583 -0.490441 -0.310585 0.281791 0.000000 0.000000 0.000000 0.000000 0.000000 0.000000 0.000000 9.057854 -4.395988 1.545457 62.846396 2.607358 -27.386726 0.253120 72.053364 -0.113421 -23.359814 10.341099 -2.249121 0.237417 -0.405234 0.000000 0.000000 0.000000 0.000000 0.000000 0.000000 0.000000 
3.027014 17.210140 -1.263916 35.631934 -72.810908 -1.197449 -11.143319 -1.422153 -1.066310 -3.164000 -0.874440 -3.115235 -5.760582 -0.939250 0.430579 9.070911 -8.827122 -11.030888 -2.436511 -0.114205 -1.284050 0.000000 0.000000 0.000000 0.859388 11.492933 2.818817 -48.921471 1.049407 -32.672980 -0.559529 -73.389904 -0.100940 23.679711 -2.101895 -0.505719 -0.312395 0.285779 0.000000 0.000000 0.000000 0.000000 0.000000 0.000000 0.000000 8.917117 -4.390860 1.463369 63.281099 2.685462 -26.595091 0.265985 72.205728 -0.111582 -22.972016 10.611710 -2.267785 0.235131 -0.409218 0.000000 0.000000 0.000000 0.000000 0.000000 0.000000 0.000000 
3.019138 17.226349 -1.253911 35.098077 -73.383263 -1.534274 -10.851166 -1.298231 -0.994917 -3.104418 -0.760207 -3.093819 -5.811167 -0.820757 0.450411 9.078227 -8.910385 -10.901886 -2.412800 -0.114862 -1.231962 0.000000 0.000000 0.000000 0.853386 11.594819 2.755940 -48.604032 0.883216 -32.453602 -0.550302 -73.718456 -0.101224 23.551918 -2.214480 -0.527592 -0.314376 0.289832 0.000000 0.000000 0.000000 0.000000 0.000000 0.000000 0.000000 8.752877 -4.388205 1.379374 63.733720 2.714712 -25.831553 0.278616 72.417989 -0.109714 -22.574049 10.893390 -2.285846 0.232815 -0.413529 0.000000 0.000000 0.000000 0.000000 0.000000 0.000000 0.000000 
3.008862 17.242479 -1.241981 34.564331 -73.980897 -1.911228 -10.535137 -1.177794 -0.926255 -3.038917 -0.650786 -3.073122 -5.859617 -0.707064 0.470711 9.078601 -9.006100 -10.786173 -2.386630 -0.115185 -1.183265 0.000000 0.000000 0.000000 0.833240 11.719892 2.691733 -48.320822 0.757212 -32.238773 -0.538763 -74.098591 -0.101480 23.450062 -2.344427 -0.553462 -0.316503 0.293850 0.000000 0.000000 0.000000 0.000000 0.000000 0.000000 0.000000 8.565416 -4.392058 1.293001 64.193659 2.711801 -25.109849 0.290247 72.672631 -0.107903 -22.176872 11.171540 -2.301305 0.230516 -0.418057 0.000000 0.000000 0.000000 0.000000 0.000000 0.000000 0.000000 
